# xmcd
#
# Track frame offsets: 
#        150
#        9990
#        23527
#        34295
#        44975
#        54462
#        65145
#        75950
#        86990
#        98057
#        109785
#        122117
#        133377
#        145157
#        155630
#        168242
#        178425
#        189280
#        198407
#        209080
#        219475
#        229302
#        241627
#        251280
#        261230
#        273007
#        283430
#        293872
#        305860
#        313715
#
# Disc length: 4288 seconds
#
# Revision: 1
# Processed by: cddbd v1.5.2PL0 Copyright (c) Steve Scherf et al.
# Submitted via: ExactAudioCopy v1.0b3
#
DISCID=cc10be1e
DTITLE=The Osborne Brothers - The Osborne Bros. 1956-68_CD01
DYEAR=1995
DGENRE=Bluegrass
TTITLE0=Who Done It-
TTITLE1=Ruby Are You Mad-
TTITLE2=My Aching Heart
TTITLE3=Teardrops In My Eyes
TTITLE4=Wild Mountain Honey
TTITLE5=Downin The Willow Garden
TTITLE6=Ho Honey Yo
TTITLE7=Della Mae
TTITLE8=She'S No Angel
TTITLE9=(Is This) My Destiny
TTITLE10=Once More
TTITLE11=Two Lonely Hearts
TTITLE12=Lost Highway
TTITLE13=Love Pains
TTITLE14=It Hurts To Know
TTITLE15=If You Don'T Somebody Else Will
TTITLE16=Give This Message To Your Heart
TTITLE17=You'Ll Never Know (How Much It Hurts)
TTITLE18=I Love You Only
TTITLE19=It'S Just The Idea
TTITLE20=Lonely Lonely Me
TTITLE21=Sweethearts Again
TTITLE22=Blame Me
TTITLE23=Thers'S A Woman Behind Every Man
TTITLE24=Fair And Tender Ladies
TTITLE25=Each Season Changes You
TTITLE26=The Black Sheep Returned To The Fold
TTITLE27=At The First Fall Of Snow
TTITLE28=Old Hickory
TTITLE29=Old Joe Clark
EXTD=
EXTT0=
EXTT1=
EXTT2=
EXTT3=
EXTT4=
EXTT5=
EXTT6=
EXTT7=
EXTT8=
EXTT9=
EXTT10=
EXTT11=
EXTT12=
EXTT13=
EXTT14=
EXTT15=
EXTT16=
EXTT17=
EXTT18=
EXTT19=
EXTT20=
EXTT21=
EXTT22=
EXTT23=
EXTT24=
EXTT25=
EXTT26=
EXTT27=
EXTT28=
EXTT29=
PLAYORDER=
